<svg width="41" height="27" viewBox="0 0 41 27" fill="none" xmlns="http://www.w3.org/2000/svg">
<path d="M0 4.35833C0 1.95444 2.04288 0 4.55556 0H22.7778C25.2905 0 27.3333 1.95444 27.3333 4.35833V21.7917C27.3333 24.1956 25.2905 26.15 22.7778 26.15H4.55556C2.04288 26.15 0 24.1956 0 21.7917V4.35833ZM39.797 2.43794C40.5373 2.8193 41 3.55477 41 4.35833V21.7917C41 22.5952 40.5373 23.3307 39.797 23.7121C39.0568 24.0934 38.1599 24.0526 37.4552 23.6031L30.6219 19.2448L29.6111 18.5978V17.4333V8.71667V7.55217L30.6219 6.90523L37.4552 2.5469C38.1528 2.10426 39.0496 2.05659 39.797 2.43794Z" fill="black"/>
<path d="M0 4.35833C0 1.95444 2.04288 0 4.55556 0H22.7778C25.2905 0 27.3333 1.95444 27.3333 4.35833V21.7917C27.3333 24.1956 25.2905 26.15 22.7778 26.15H4.55556C2.04288 26.15 0 24.1956 0 21.7917V4.35833ZM39.797 2.43794C40.5373 2.8193 41 3.55477 41 4.35833V21.7917C41 22.5952 40.5373 23.3307 39.797 23.7121C39.0568 24.0934 38.1599 24.0526 37.4552 23.6031L30.6219 19.2448L29.6111 18.5978V17.4333V8.71667V7.55217L30.6219 6.90523L37.4552 2.5469C38.1528 2.10426 39.0496 2.05659 39.797 2.43794Z" fill="#3875FE"/>
</svg>
