<svg width="28" height="30" viewBox="0 0 28 30" fill="none" xmlns="http://www.w3.org/2000/svg">
<g clip-path="url(#clip0_111_60)">
<path d="M15.3125 -0.000175714C22.318 -0.000175714 28 5.94013 28 13.264C28 14.0244 27.4148 14.6362 26.6875 14.6362C25.9602 14.6362 25.375 14.0244 25.375 13.264C25.375 7.45522 20.8687 2.74414 15.3125 2.74414C14.5852 2.74414 14 2.13239 14 1.37198C14 0.611579 14.5852 -0.000175714 15.3125 -0.000175714ZM15.75 10.9771C16.2141 10.9771 16.6592 11.1699 16.9874 11.513C17.3156 11.8561 17.5 12.3214 17.5 12.8066C17.5 13.2919 17.3156 13.7572 16.9874 14.1003C16.6592 14.4434 16.2141 14.6362 15.75 14.6362C15.2859 14.6362 14.8408 14.4434 14.5126 14.1003C14.1844 13.7572 14 13.2919 14 12.8066C14 12.3214 14.1844 11.8561 14.5126 11.513C14.8408 11.1699 15.2859 10.9771 15.75 10.9771ZM14 6.86062C14 6.10022 14.5852 5.48846 15.3125 5.48846C19.4195 5.48846 22.75 8.97032 22.75 13.264C22.75 14.0244 22.1648 14.6362 21.4375 14.6362C20.7102 14.6362 20.125 14.0244 20.125 13.264C20.125 10.4854 17.9703 8.23278 15.3125 8.23278C14.5852 8.23278 14 7.62103 14 6.86062ZM6.42578 0.0798669C7.48672 -0.223152 8.59687 0.342864 9.01797 1.40629L11.2055 6.89492C11.5773 7.82685 11.3203 8.90742 10.5711 9.54205L7.875 11.8518C9.69609 15.8769 12.8133 19.1357 16.6633 21.0396L18.8672 18.221C19.4797 17.4377 20.5078 17.169 21.3992 17.5577L26.6492 19.8447C27.6664 20.2849 28.2078 21.4455 27.918 22.5547L26.6055 27.5859C26.3484 28.5808 25.4844 29.2726 24.5 29.2726C10.9703 29.2726 0 17.8036 0 3.65892C0 2.6298 0.661719 1.72646 1.61328 1.45203L6.42578 0.0798669Z" fill="black"/>
<path d="M15.3125 -0.000175714C22.318 -0.000175714 28 5.94013 28 13.264C28 14.0244 27.4148 14.6362 26.6875 14.6362C25.9602 14.6362 25.375 14.0244 25.375 13.264C25.375 7.45522 20.8687 2.74414 15.3125 2.74414C14.5852 2.74414 14 2.13239 14 1.37198C14 0.611579 14.5852 -0.000175714 15.3125 -0.000175714ZM15.75 10.9771C16.2141 10.9771 16.6592 11.1699 16.9874 11.513C17.3156 11.8561 17.5 12.3214 17.5 12.8066C17.5 13.2919 17.3156 13.7572 16.9874 14.1003C16.6592 14.4434 16.2141 14.6362 15.75 14.6362C15.2859 14.6362 14.8408 14.4434 14.5126 14.1003C14.1844 13.7572 14 13.2919 14 12.8066C14 12.3214 14.1844 11.8561 14.5126 11.513C14.8408 11.1699 15.2859 10.9771 15.75 10.9771ZM14 6.86062C14 6.10022 14.5852 5.48846 15.3125 5.48846C19.4195 5.48846 22.75 8.97032 22.75 13.264C22.75 14.0244 22.1648 14.6362 21.4375 14.6362C20.7102 14.6362 20.125 14.0244 20.125 13.264C20.125 10.4854 17.9703 8.23278 15.3125 8.23278C14.5852 8.23278 14 7.62103 14 6.86062ZM6.42578 0.0798669C7.48672 -0.223152 8.59687 0.342864 9.01797 1.40629L11.2055 6.89492C11.5773 7.82685 11.3203 8.90742 10.5711 9.54205L7.875 11.8518C9.69609 15.8769 12.8133 19.1357 16.6633 21.0396L18.8672 18.221C19.4797 17.4377 20.5078 17.169 21.3992 17.5577L26.6492 19.8447C27.6664 20.2849 28.2078 21.4455 27.918 22.5547L26.6055 27.5859C26.3484 28.5808 25.4844 29.2726 24.5 29.2726C10.9703 29.2726 0 17.8036 0 3.65892C0 2.6298 0.661719 1.72646 1.61328 1.45203L6.42578 0.0798669Z" fill="#3875FE"/>
</g>
<defs>
<clipPath id="clip0_111_60">
<rect width="28" height="29.2727" fill="white"/>
</clipPath>
</defs>
</svg>
