<svg version="1.1" id="Layer_1" xmlns="http://www.w3.org/2000/svg" xmlns:xlink="http://www.w3.org/1999/xlink" x="0px" y="0px"
	 width="100%" viewBox="0 0 2690 411" enable-background="new 0 0 2690 411" xml:space="preserve">
<path fill="#FFFFFF" opacity="1.000000" stroke="none" 
	d="
M518.000000,0.999998 
	C1242.274902,1.000000 1966.549805,1.000000 2690.912354,1.000000 
	C2690.912354,137.930496 2690.912354,274.861053 2690.912354,412.000000 
	C1895.633911,412.000000 1100.267822,412.000000 304.603149,411.676758 
	C307.913574,408.424805 312.497955,406.149475 314.970154,402.459198 
	C328.834656,381.763397 342.146790,360.698456 355.730743,339.813660 
	C369.582458,318.517303 383.513245,297.272217 397.456665,276.035706 
	C399.322174,273.194397 399.222778,270.704285 397.369873,267.845154 
	C386.852692,251.616211 376.403717,235.342514 366.018829,219.028488 
	C344.810760,185.711975 323.690063,152.339813 302.468262,119.032059 
	C293.046600,104.244644 283.410522,89.593933 273.971863,74.817253 
	C258.272125,50.238621 242.653046,25.608461 227.000000,1.000002 
	C275.699402,1.000000 324.398804,1.000000 373.441895,1.336021 
	C371.805237,2.792663 369.864960,3.992170 367.838257,5.021526 
	C350.297729,13.930371 342.668427,35.970009 351.899994,53.292976 
	C357.331604,63.485359 364.039459,73.003319 370.269409,82.763298 
	C380.890045,99.402016 391.559235,116.009956 402.262665,132.595566 
	C407.395569,140.549377 412.234619,148.740921 417.950012,156.259796 
	C427.138489,168.347672 443.530762,172.994614 458.289948,168.257370 
	C464.234406,166.349365 470.263733,164.887146 474.131653,158.833389 
	C494.602448,126.794258 515.215759,94.843872 536.084839,63.063099 
	C541.834717,54.306808 546.001526,45.516766 545.080383,34.684727 
	C544.168457,23.961252 539.977600,15.142479 531.306396,8.811522 
	C527.173096,5.793763 522.453857,3.578672 518.000000,0.999998 
z"/>
<path fill="#69D080" opacity="1.000000" stroke="none" 
	d="
M226.531342,1.000002 
	C242.653046,25.608461 258.272125,50.238621 273.971863,74.817253 
	C283.410522,89.593933 293.046600,104.244644 302.468262,119.032059 
	C323.690063,152.339813 344.810760,185.711975 366.018829,219.028488 
	C376.403717,235.342514 386.852692,251.616211 397.369873,267.845154 
	C399.222778,270.704285 399.322174,273.194397 397.456665,276.035706 
	C383.513245,297.272217 369.582458,318.517303 355.730743,339.813660 
	C342.146790,360.698456 328.834656,381.763397 314.970154,402.459198 
	C312.497955,406.149475 307.913574,408.424805 304.152252,411.676758 
	C299.975464,412.000000 295.950897,412.000000 291.355072,411.675720 
	C288.117615,408.717346 284.846497,406.467926 282.886139,403.385010 
	C272.327057,386.779663 262.075012,369.978699 251.752274,353.223541 
	C238.935059,332.419525 226.139496,311.602173 213.358429,290.775940 
	C201.779617,271.908752 190.244934,253.014481 178.668655,234.145721 
	C165.890060,213.317230 153.083359,192.505951 140.294235,171.683914 
	C127.078232,150.166840 113.863503,128.648956 100.657608,107.125664 
	C86.935982,84.761833 73.156654,62.432739 59.593185,39.973335 
	C57.796848,36.998825 55.906689,35.897964 52.493801,35.928825 
	C35.330391,36.083992 18.164816,36.000008 1.000000,36.000000 
	C1.000000,24.352919 1.000000,12.705838 1.000000,1.000000 
	C76.020882,1.000000 151.041779,1.000000 226.531342,1.000002 
z"/>
<path fill="#FFFFFF" opacity="1.000000" stroke="none" 
	d="
M1.000000,36.468658 
	C18.164816,36.000008 35.330391,36.083992 52.493801,35.928825 
	C55.906689,35.897964 57.796848,36.998825 59.593185,39.973335 
	C73.156654,62.432739 86.935982,84.761833 100.657608,107.125664 
	C113.863503,128.648956 127.078232,150.166840 140.294235,171.683914 
	C153.083359,192.505951 165.890060,213.317230 178.668655,234.145721 
	C190.244934,253.014481 201.779617,271.908752 213.358429,290.775940 
	C226.139496,311.602173 238.935059,332.419525 251.752274,353.223541 
	C262.075012,369.978699 272.327057,386.779663 282.886139,403.385010 
	C284.846497,406.467926 288.117615,408.717346 290.891907,411.675720 
	C194.396851,412.000000 97.793716,412.000000 1.000000,412.000000 
	C1.000000,286.979156 1.000000,161.958237 1.000000,36.468658 
z"/>
<path fill="#3875FD" opacity="1.000000" stroke="none" 
	d="
M517.531372,0.999998 
	C522.453857,3.578672 527.173096,5.793763 531.306396,8.811522 
	C539.977600,15.142479 544.168457,23.961252 545.080383,34.684727 
	C546.001526,45.516766 541.834717,54.306808 536.084839,63.063099 
	C515.215759,94.843872 494.602448,126.794258 474.131653,158.833389 
	C470.263733,164.887146 464.234406,166.349365 458.289948,168.257370 
	C443.530762,172.994614 427.138489,168.347672 417.950012,156.259796 
	C412.234619,148.740921 407.395569,140.549377 402.262665,132.595566 
	C391.559235,116.009956 380.890045,99.402016 370.269409,82.763298 
	C364.039459,73.003319 357.331604,63.485359 351.899994,53.292976 
	C342.668427,35.970009 350.297729,13.930371 367.838257,5.021526 
	C369.864960,3.992170 371.805237,2.792663 373.892792,1.336021 
	C421.687561,1.000000 469.375122,1.000000 517.531372,0.999998 
z"/>
</svg>